<svg xmlns="http://www.w3.org/2000/svg" width="84.402" height="89.873" viewBox="0 0 84.402 89.873">
  <path id="Icon_weather-day-sunny" data-name="Icon weather-day-sunny" d="M5.244,49.694a3.693,3.693,0,0,1,.993-2.621,3.326,3.326,0,0,1,2.384-1.015h8.106a2.93,2.93,0,0,1,2.3,1.057,4.166,4.166,0,0,1,.04,5.157,2.875,2.875,0,0,1-2.3,1.057H8.661a3.148,3.148,0,0,1-2.384-1.057A3.628,3.628,0,0,1,5.244,49.694Zm11.365,29.3a4.064,4.064,0,0,1,.914-2.579l5.841-6.045a2.961,2.961,0,0,1,2.344-.972,3.291,3.291,0,0,1,3.338,3.382,4.139,4.139,0,0,1-.954,2.705l-5.643,6a3.451,3.451,0,0,1-4.888,0A3.528,3.528,0,0,1,16.609,78.99Zm0-58.506a4.064,4.064,0,0,1,.914-2.579,3.69,3.69,0,0,1,2.543-1.057,3.239,3.239,0,0,1,2.344,1.015l5.682,6.214a3.39,3.39,0,0,1,.954,2.494,3.559,3.559,0,0,1-.954,2.536,3.136,3.136,0,0,1-2.384,1.015,2.994,2.994,0,0,1-2.344-1.015l-5.8-6.045A3.662,3.662,0,0,1,16.609,20.483ZM26.742,49.694A22.389,22.389,0,0,1,29.523,38.7a21.463,21.463,0,0,1,7.59-8.074A19.242,19.242,0,0,1,47.445,27.67a19.019,19.019,0,0,1,8.027,1.775,20.745,20.745,0,0,1,6.6,4.735A21.892,21.892,0,0,1,66.479,41.2a23.077,23.077,0,0,1,1.629,8.539A22.433,22.433,0,0,1,65.326,60.77a21.553,21.553,0,0,1-7.55,8.032,19.655,19.655,0,0,1-20.743,0,21.554,21.554,0,0,1-7.55-8.032A23.582,23.582,0,0,1,26.742,49.694Zm6.755,0A14.835,14.835,0,0,0,37.59,60.263a13,13,0,0,0,9.895,4.4,13.14,13.14,0,0,0,9.934-4.4,14.869,14.869,0,0,0,4.133-10.568,14.712,14.712,0,0,0-4.133-10.442,13.208,13.208,0,0,0-9.934-4.312,13.04,13.04,0,0,0-9.855,4.312A14.545,14.545,0,0,0,33.5,49.694Zm10.57,32.889a3.428,3.428,0,0,1,.993-2.536,3.261,3.261,0,0,1,2.384-1.015,3.222,3.222,0,0,1,2.424,1.015,3.559,3.559,0,0,1,.954,2.536V91a3.693,3.693,0,0,1-.993,2.621,3.148,3.148,0,0,1-2.384,1.057,3.089,3.089,0,0,1-2.384-1.057A3.693,3.693,0,0,1,44.067,91V82.583Zm0-65.524V8.435A3.563,3.563,0,0,1,45.061,5.9a3.213,3.213,0,0,1,2.424-1.1,3.089,3.089,0,0,1,2.384,1.057,3.563,3.563,0,0,1,.993,2.536v8.666a3.3,3.3,0,0,1-.993,2.452,3.219,3.219,0,0,1-2.384.972,3.322,3.322,0,0,1-2.384-.972A3.424,3.424,0,0,1,44.067,17.059ZM66,72.776a3.222,3.222,0,0,1,.914-2.367,2.826,2.826,0,0,1,2.225-.972,3.257,3.257,0,0,1,2.384.972l5.8,6.045a3.81,3.81,0,0,1,.954,2.579,3.528,3.528,0,0,1-.954,2.494,3.383,3.383,0,0,1-4.768,0l-5.643-6A4.279,4.279,0,0,1,66,72.776Zm0-46.163a3.39,3.39,0,0,1,.914-2.494L72.559,17.9A3.238,3.238,0,0,1,74.9,16.89a3.032,3.032,0,0,1,2.384,1.057,3.563,3.563,0,0,1,.993,2.536,3.7,3.7,0,0,1-.954,2.621l-5.8,6.045a3.394,3.394,0,0,1-2.384,1.015,2.808,2.808,0,0,1-2.225-1.015A3.71,3.71,0,0,1,66,26.613Zm8.981,23.081a3.918,3.918,0,0,1,.954-2.621A3.006,3.006,0,0,1,78.2,46.059h8.027a3.193,3.193,0,0,1,2.384,1.1,3.63,3.63,0,0,1,0,5.073,3.148,3.148,0,0,1-2.384,1.057H78.2a2.875,2.875,0,0,1-2.3-1.057A3.787,3.787,0,0,1,74.983,49.694Z" transform="translate(-5.244 -4.8)" fill="#fff"/>
</svg>
